# xmcd
#
# Track frame offsets: 
#        150
#        12747
#        25930
#        39617
#        54962
#        67747
#        80842
#        90852
#        104455
#        116512
#        129077
#        142647
#
# Disc length: 2068 seconds
#
# Revision: 8
# Processed by: cddbd v1.5.2PL0 Copyright (c) Steve Scherf et al.
# Submitted via: ExactAudioCopy v1.0b3
#
DISCID=8c08120c
DTITLE=Ray Charles - The Genius Sings the Blues
DYEAR=1961
DGENRE=Jazz
TTITLE0=Early in the Mornin'
TTITLE1=Hard Times (No One Knows Better Than I)
TTITLE2=The Midnight Hour
TTITLE3=The Right Time
TTITLE4=Feelin' Sad
TTITLE5=Ray's Blues
TTITLE6=I'm Movin' On
TTITLE7=I Believe to My Soul
TTITLE8=Nobody Cares
TTITLE9=Mr. Charles' Blues
TTITLE10=Some Day Baby
TTITLE11=I Wonder Who
EXTD=YEAR: 1961
EXTT0=
EXTT1=
EXTT2=
EXTT3=
EXTT4=
EXTT5=
EXTT6=
EXTT7=
EXTT8=
EXTT9=
EXTT10=
EXTT11=
PLAYORDER=
